<svg width="100" height="104" viewBox="0 0 100 104" fill="none" xmlns="http://www.w3.org/2000/svg">
<path d="M99.9999 83.5032C99.9999 83.9992 99.8437 84.33 99.5312 84.6607L82.8122 103.015C82.4997 103.346 82.1872 103.511 81.7184 103.511C81.2496 103.511 80.9371 103.346 80.6246 103.015L74.9996 97.2276L93.7496 76.559L99.5308 82.3463C99.8433 82.8424 99.9999 83.1724 99.9999 83.5032Z" fill="#2BB7C3"/>
<path d="M94.8439 69.9449C94.8439 70.4409 94.6877 70.7716 94.3752 71.1024L69.8442 98.055C69.5317 98.3857 69.2192 98.551 68.7504 98.551C68.2816 98.551 67.9691 98.3857 67.6566 98.055L60.6254 90.9448C60.3129 90.6141 60.1566 90.2834 60.1566 89.7873C60.1566 89.2912 60.3129 88.9605 60.6254 88.6298L85.3134 61.6772C85.6259 61.3465 85.9384 61.1812 86.4072 61.1812C86.7197 61.1812 87.1884 61.3465 87.501 61.6772L94.5322 68.7874C94.6884 69.1181 94.8439 69.4488 94.8439 69.9449Z" fill="#2BB7C3"/>
<path d="M74.9999 68.1257L66.4061 77.5507L51.2501 62.0071L25.0001 35.3858L33.5939 25.9608L48.7499 41.5044L74.9999 68.1257Z" fill="#2BB7C3"/>
<path d="M25 6.28394L6.24995 26.9526L0.46875 21.1653C-0.15625 20.5039 -0.15625 19.5117 0.46875 18.8503L17.1877 0.496055C17.5002 0.165352 17.8128 0 18.2816 0C18.7504 0 19.0628 0.165352 19.3754 0.496055L25 6.28394Z" fill="#2BB7C3"/>
<path d="M39.6879 13.5592C39.6879 14.0553 39.5317 14.386 39.2192 14.7167L14.6882 41.8344C14.3757 42.1651 14.0632 42.3304 13.5944 42.3304C13.2819 42.3304 12.8131 42.1651 12.5006 41.8344L5.46936 34.7242C5.15686 34.3935 5.00061 34.0628 5.00061 33.5667C5.00061 33.0706 5.15686 32.7399 5.46936 32.4092L30.1574 5.45663C30.4699 5.12592 30.7824 4.96057 31.2512 4.96057C31.72 4.96057 32.0324 5.12592 32.345 5.45663L39.3762 12.5668C39.5324 12.8975 39.6879 13.2285 39.6879 13.5592Z" fill="#2BB7C3"/>
<path d="M24.9999 97.2277L19.2187 103.015C18.9062 103.346 18.5937 103.511 18.1249 103.511C17.6561 103.511 17.3437 103.346 17.0311 103.015L0.469116 84.6608C-0.155884 83.9993 -0.155884 83.0072 0.469116 82.3458L6.25032 76.5585L24.9999 97.2277Z" fill="#2BB7C3"/>
<path d="M39.688 89.9521C39.688 90.4481 39.5317 90.7788 39.2192 91.1096L32.3442 98.0544C32.0317 98.3851 31.563 98.5504 31.2504 98.5504C30.7817 98.5504 30.4692 98.3851 30.1566 98.0544L5.62561 71.1018C5.31311 70.7711 5.15686 70.4404 5.15686 69.9443C5.15686 69.4482 5.31311 69.1175 5.62561 68.7868L12.5006 61.6766C12.8131 61.3459 13.1256 61.1805 13.5944 61.1805C14.0632 61.1805 14.3757 61.3459 14.6882 61.6766L39.3762 88.6292C39.5325 89.1252 39.688 89.456 39.688 89.9521Z" fill="#2BB7C3"/>
<path d="M47.6559 63.3309L33.5939 77.5516L25.0001 68.1266L38.7501 54.072L47.6559 63.3309Z" fill="#2BB7C3"/>
<path d="M75 35.3857L61.25 49.4403L52.3438 40.1806L66.4058 25.9598L75 35.3857Z" fill="#2BB7C3"/>
<path d="M94.8439 33.5665C94.8439 34.0626 94.6877 34.3933 94.3752 34.724L87.5002 41.8342C87.1877 42.1649 86.8752 42.3302 86.4064 42.3302C85.9376 42.3302 85.6251 42.1649 85.3126 41.8342L60.6246 14.7165C60.3121 14.3858 60.1558 14.0551 60.1558 13.559C60.1558 13.0629 60.3121 12.7323 60.6246 12.4015L67.6558 5.45675C67.9683 5.12604 68.2808 4.96069 68.7496 4.96069C69.2184 4.96069 69.5308 5.12604 69.8434 5.45675L94.5314 32.4093C94.6876 32.74 94.8439 33.0704 94.8439 33.5665Z" fill="#2BB7C3"/>
<path d="M99.9999 20.0081C99.9999 20.5041 99.8437 20.8348 99.5312 21.1656L93.75 26.9529L75 6.28427L80.7812 0.496909C81.0937 0.166206 81.4062 0.000854492 81.875 0.000854492C82.3438 0.000854492 82.6562 0.166206 82.9688 0.496909L99.6878 18.8512C99.844 19.1819 99.9999 19.512 99.9999 20.0081Z" fill="#2BB7C3"/>
</svg>
