<svg width="49" height="62" viewBox="0 0 49 62" fill="none" xmlns="http://www.w3.org/2000/svg">
<path d="M13.8222 23.1602C13.4814 23.1602 13.2056 22.8684 13.2056 22.5078V0.652455C13.2056 0.291821 13.4814 0 13.8222 0C14.163 0 14.4387 0.291821 14.4387 0.652455V22.5078C14.4387 22.8684 14.163 23.1602 13.8222 23.1602Z" fill="#1DB3BF"/>
<path d="M18.3096 30.0054H9.33541C8.99463 30.0054 8.71887 29.7136 8.71887 29.353V25.1177C8.71887 23.319 10.1019 21.8555 11.8016 21.8555H15.8434C17.5431 21.8555 18.9261 23.319 18.9261 25.1177V29.353C18.9261 29.7136 18.6504 30.0054 18.3096 30.0054ZM9.95196 28.7005H17.693V25.1177C17.693 24.0384 16.8634 23.1604 15.8434 23.1604H11.8016C10.7816 23.1604 9.95196 24.0384 9.95196 25.1177V28.7005Z" fill="#1DB3BF"/>
<path d="M35.1772 61.3308C27.5553 61.3308 21.3544 54.7687 21.3544 46.7028C21.3544 38.637 27.5553 32.0748 35.1772 32.0748C42.7991 32.0748 49 38.637 49 46.7028C49 54.7687 42.7991 61.3308 35.1772 61.3308ZM35.1772 33.3797C28.2351 33.3797 22.5875 39.3563 22.5875 46.7028C22.5875 54.0493 28.2351 60.0259 35.1772 60.0259C42.1193 60.0259 47.7669 54.0493 47.7669 46.7028C47.7669 39.3563 42.1193 33.3797 35.1772 33.3797ZM35.1766 56.1564C30.2509 56.1564 26.244 51.9155 26.244 46.7028C26.244 41.4902 30.2509 37.2499 35.1766 37.2499C40.1029 37.2499 44.1104 41.4902 44.1104 46.7028C44.1104 51.9155 40.1029 56.1564 35.1766 56.1564ZM35.1766 38.5548C30.9312 38.5548 27.477 42.2102 27.477 46.7028C27.477 51.1961 30.9312 54.8515 35.1766 54.8515C39.4225 54.8515 42.8773 51.1961 42.8773 46.7028C42.8773 42.2102 39.4225 38.5548 35.1766 38.5548Z" fill="#1DB3BF"/>
<path d="M13.8228 57.9557C6.20094 57.9557 0 51.3935 0 43.3277C0 35.2619 6.20094 28.6997 13.8228 28.6997C19.0755 28.6997 23.8073 31.7963 26.1717 36.7821C26.2885 37.0281 26.247 37.325 26.0669 37.5244C23.8236 40.0176 22.5875 43.2774 22.5875 46.7028C22.5875 48.7793 23.039 50.7844 23.9295 52.6634C24.0463 52.9094 24.0048 53.2063 23.8254 53.4057C21.1846 56.3398 17.6322 57.9557 13.8228 57.9557ZM13.8228 30.0046C6.8807 30.0046 1.23308 35.9812 1.23308 43.3277C1.23308 50.6742 6.8807 56.6508 13.8228 56.6508C17.1506 56.6508 20.2634 55.2962 22.635 52.8259C21.9956 51.3681 21.594 49.8433 21.4339 48.2734C19.86 50.9756 17.0368 52.7813 13.8228 52.7813C8.8965 52.7813 4.88898 48.541 4.88898 43.3283C4.88898 38.1157 8.8965 33.8747 13.8228 33.8747C17.9724 33.8747 21.4706 36.8847 22.4701 40.9498C23.0553 39.5092 23.8627 38.1654 24.8736 36.9694C22.6609 32.6616 18.4649 30.0046 13.8228 30.0046ZM13.8228 35.1797C9.57687 35.1797 6.12207 38.8351 6.12207 43.3283C6.12207 47.821 9.57687 51.4764 13.8228 51.4764C18.0688 51.4764 21.523 47.821 21.523 43.3283C21.523 38.8351 18.0688 35.1797 13.8228 35.1797Z" fill="#1DB3BF"/>
<path d="M35.1771 26.5346C34.8364 26.5346 34.5606 26.2428 34.5606 25.8822V4.02746C34.5606 3.66682 34.8364 3.375 35.1771 3.375C35.5179 3.375 35.7937 3.66682 35.7937 4.02746V25.8822C35.7937 26.2428 35.5179 26.5346 35.1771 26.5346Z" fill="#1DB3BF"/>
<path d="M39.664 33.3797H30.6904C30.3496 33.3797 30.0739 33.0879 30.0739 32.7272V28.492C30.0739 26.6933 31.4569 25.2297 33.1566 25.2297H37.1978C38.8975 25.2297 40.2805 26.6933 40.2805 28.492V32.7272C40.2805 33.0879 40.0047 33.3797 39.664 33.3797ZM31.3069 32.0748H39.0474V28.492C39.0474 27.4127 38.2177 26.5346 37.1978 26.5346H33.1566C32.1366 26.5346 31.3069 27.4127 31.3069 28.492V32.0748Z" fill="#1DB3BF"/>
</svg>
