<svg width="42" height="74" viewBox="0 0 42 74" fill="none" xmlns="http://www.w3.org/2000/svg">
<path d="M17.8613 40.557C18.1332 40.7137 18.3705 40.9298 18.5577 41.1908C18.7448 41.4518 18.8774 41.752 18.9468 42.0713C19.107 42.6887 19.1489 43.3337 19.0702 43.9685C18.8852 45.2477 18.4206 46.4635 17.7133 47.5192C17.1029 48.6155 16.1159 49.4199 14.9583 49.7645C13.7569 50.1473 12.4755 50.1473 11.2741 49.7645C12.4281 50.494 13.8004 50.7334 15.1146 50.4346C15.7931 50.2876 16.4347 49.9911 16.9978 49.5643C17.5536 49.1339 18.0279 48.5966 18.3958 47.9804C19.1711 46.8122 19.6213 45.4374 19.6952 44.012C19.7267 43.2911 19.5971 42.5725 19.3169 41.9146C19.1882 41.5858 18.9901 41.2925 18.7378 41.0572C18.4855 40.8219 18.1857 40.6508 17.8613 40.557Z" fill="#1DB3BF"/>
<path d="M41.8004 1.63856C41.7763 1.40273 41.7003 1.17618 41.5783 0.977157C41.4398 0.769717 41.2403 0.616696 41.0109 0.542022C40.6128 0.424321 40.1919 0.424321 39.7938 0.542022C39.4223 0.636804 39.0592 0.764907 38.7083 0.924941C37.3505 1.57367 36.0788 2.4075 34.9254 3.40521C30.4764 7.48678 26.825 12.3603 23.1984 17.2338C23.0728 16.9187 23.0116 16.579 23.0186 16.2371C23.0257 15.8951 23.101 15.5586 23.2395 15.2496C23.0947 15.5558 23.0132 15.8911 23.0005 16.2333C22.9877 16.5754 23.044 16.9165 23.1655 17.2338C26.8991 12.4734 30.682 7.66084 35.1556 3.72721C36.2874 2.77709 37.5315 1.98719 38.8563 1.37748C39.4542 1.04422 40.1363 0.919342 40.8053 1.02067C41.3481 1.18602 41.3069 2.05629 41.1507 2.76121C40.4599 5.70273 38.6096 8.1917 36.7757 10.5937C34.9418 12.9956 33.0997 15.4237 31.2658 17.843C30.353 19.0614 29.4155 20.2537 28.5356 21.4981C27.6556 22.7426 26.8086 24.0219 26.0027 25.3273C24.9695 26.9964 24.025 28.7251 23.1737 30.5055C23.1737 30.4445 23.1737 30.3836 23.1326 30.3227C22.9614 29.5827 22.8296 28.8331 22.7379 28.0774C22.6639 27.3203 22.5816 26.537 22.4747 25.7625C22.2691 24.2221 22.006 22.6817 21.6524 21.1587C20.3864 15.0627 18.3477 9.17568 15.5915 3.65759C15.2461 2.97008 14.8925 2.29127 14.5224 1.61246C14.367 1.2441 14.1711 0.896479 13.9385 0.576833C13.7988 0.385867 13.6171 0.233781 13.4094 0.13371C13.2016 0.0336385 12.974 -0.0114108 12.7461 0.00245338C12.3175 0.0533005 11.9177 0.255672 11.6112 0.576833C11.3212 0.894079 11.1168 1.28773 11.0191 1.71689C10.8488 2.50738 10.8126 3.32363 10.9122 4.12754C11.0966 5.68043 11.4131 7.21253 11.8579 8.70516L12.4912 10.9331C12.7132 11.6554 12.8201 12.4212 12.9846 13.1784L14.802 22.2727L15.7231 26.8068C15.8317 27.1731 15.868 27.559 15.8298 27.9408C15.7916 28.3225 15.6797 28.6919 15.501 29.026C15.3798 29.1683 15.2264 29.2757 15.0553 29.3381C14.8841 29.4005 14.7007 29.4159 14.5224 29.3828C14.3398 29.3829 14.1645 29.3073 14.0339 29.1723C13.9032 29.0373 13.8277 28.8536 13.8234 28.6605C13.7741 29.0782 14.1688 29.3741 14.5224 29.4089C14.7058 29.4466 14.8952 29.4335 15.0724 29.371C15.2496 29.3085 15.4086 29.1986 15.5339 29.0521C15.7265 28.7162 15.8514 28.3419 15.9009 27.9525C15.9505 27.5632 15.9235 27.1672 15.8218 26.7894L14.9994 22.2205L13.3547 13.0739C13.2066 12.3168 13.1079 11.5422 12.8859 10.7851L12.2938 8.57462C11.8956 7.10326 11.6204 5.5977 11.4714 4.07532C11.3889 3.33698 11.4279 2.58911 11.5866 1.86483C11.6467 1.54004 11.801 1.24315 12.028 1.01544C12.255 0.787729 12.5433 0.640506 12.853 0.594238C12.9922 0.598263 13.1285 0.636536 13.2513 0.706022C13.3741 0.775509 13.4798 0.874299 13.5602 0.994563C13.7839 1.27174 13.9719 1.579 14.1195 1.90835C14.4813 2.57846 14.8185 3.25727 15.1556 3.94478C17.8243 9.45048 19.8011 15.3019 21.0356 21.3502C21.3399 22.8558 21.5948 24.3787 21.7922 25.9017C21.8908 26.6676 21.9731 27.4247 22.0471 28.1992C22.1359 28.9841 22.2677 29.7629 22.4418 30.5316C22.5323 30.9232 22.6227 31.3148 22.705 31.6977C22.4254 32.333 22.1622 32.9683 21.8826 33.6123C21.5043 34.5957 21.1918 35.6052 20.904 36.6148C20.7313 36.5016 20.5586 36.3798 20.3859 36.284C18.9606 35.5292 17.4601 34.9454 15.9122 34.5435C14.403 34.1321 12.9198 33.6205 11.4714 33.0118C10.0772 32.3307 8.79902 31.4103 7.68854 30.2879C5.41058 28.0687 3.70828 25.2577 1.93196 22.5512C1.7017 22.2031 1.48788 21.8811 1.23295 21.5243C1.09144 21.3256 0.892012 21.1818 0.665517 21.1152C0.597467 21.1014 0.527498 21.1018 0.459627 21.1167C0.391755 21.1315 0.327317 21.1603 0.27001 21.2016C0.212704 21.2428 0.163659 21.2956 0.125687 21.357C0.0877156 21.4183 0.0615665 21.487 0.0487408 21.5591C-0.0298959 22.4023 -0.0133322 23.2525 0.0980824 24.0916C0.282653 25.7579 0.795327 27.3647 1.60302 28.8084C0.866373 27.3483 0.41076 25.748 0.262557 24.1003C0.189454 23.2948 0.203248 22.4831 0.303674 21.6809C0.344793 21.5156 0.435253 21.4633 0.54216 21.4894C0.69083 21.5508 0.819412 21.6567 0.912227 21.794L1.60302 22.821C3.32999 25.571 4.97473 28.4516 7.27736 30.8013C8.41633 32.0046 9.74705 32.9856 11.2083 33.6993C12.6829 34.3133 14.1938 34.8249 15.7313 35.231C17.2218 35.6397 18.6644 36.2235 20.0323 36.9716C20.2625 37.1021 20.4764 37.2588 20.6984 37.4154C20.6408 37.6243 20.575 37.8331 20.5257 38.0507C20.4028 38.4584 20.3444 38.8848 20.353 39.3126C20.3365 39.8176 20.5044 40.31 20.8218 40.6876C21.0458 40.9032 21.3416 41.0159 21.6441 41.0009C21.8909 40.9799 22.1273 40.8864 22.3267 40.7311C22.5895 40.5123 22.8148 40.2474 22.9928 39.9479C23.0578 40.0432 23.1182 40.142 23.1737 40.2438C23.8361 41.6957 24.2642 43.2547 24.4402 44.8562C24.688 46.4757 24.85 48.1085 24.9254 49.7471C25.035 53.0446 24.9553 56.3461 24.6869 59.6334C24.5635 61.2869 24.432 62.9405 24.2428 64.5766C24.1441 65.3946 24.029 66.204 23.8892 67.0133C23.8319 67.4132 23.7495 67.8086 23.6425 68.1969C23.5273 68.5798 23.3711 68.954 23.2148 69.3369C22.8759 70.101 22.622 70.9041 22.4583 71.7302C22.3727 72.1783 22.449 72.6441 22.6721 73.0356C22.9556 73.3667 23.3342 73.5899 23.7494 73.6709C25.3046 73.9343 26.885 73.9899 28.4533 73.8363C26.8948 73.8776 25.3366 73.7375 23.807 73.4185C23.4532 73.3333 23.1338 73.1323 22.8941 72.8441C22.724 72.5081 22.68 72.1165 22.7708 71.7476C22.9556 70.9576 23.2318 70.1946 23.5931 69.4762C23.7576 69.0933 23.9303 68.7191 24.0701 68.31C24.1857 67.9041 24.279 67.4915 24.3497 67.0742C24.5142 66.2562 24.6458 65.4381 24.7609 64.6114C24.9994 62.9666 25.1639 61.313 25.3201 59.6595C25.667 56.3457 25.7879 53.0097 25.682 49.6775C25.6172 48.0078 25.4663 46.3431 25.2297 44.6909C25.0455 42.9918 24.5981 41.3365 23.9056 39.7912C23.7646 39.5362 23.6109 39.2893 23.4451 39.0515C23.926 37.7425 24.1173 36.3344 24.0043 34.9351C23.9261 33.8541 23.7582 32.7825 23.5027 31.7325C24.4356 29.6635 25.4989 27.6632 26.6852 25.7451C27.5076 24.4484 28.33 23.1865 29.1523 21.942C29.9747 20.6975 30.9533 19.5052 31.8579 18.2868L37.302 11.0027C39.1195 8.60073 41.0027 6.03343 41.7017 2.89175C41.8062 2.48383 41.8396 2.05917 41.8004 1.63856ZM22.4418 39.2343C22.2832 39.5205 22.0803 39.7764 21.8415 39.9914C21.6277 40.1655 21.4632 40.1394 21.3645 40.0436C21.2019 39.8271 21.1226 39.5536 21.1425 39.2778C21.1351 38.9297 21.1824 38.5826 21.2823 38.2509C21.2823 38.1464 21.3399 38.0507 21.3645 37.955C21.7778 38.3039 22.1554 38.6977 22.4912 39.1298L22.4418 39.2343ZM23.1984 34.9786C23.2757 36.0941 23.1586 37.215 22.853 38.2857C22.475 37.8373 22.0563 37.4292 21.603 37.0673C21.8991 35.9882 22.2198 34.9264 22.6145 33.8821C22.7214 33.6036 22.8448 33.3251 22.9517 33.0118C23.0798 33.6601 23.1623 34.3175 23.1984 34.9786Z" fill="#1DB3BF"/>
</svg>
