<svg width="16" height="16" viewBox="0 0 16 16" fill="none" xmlns="http://www.w3.org/2000/svg">
<path d="M11.339 13.9966L4.67231 14.0029C3.20564 14.0042 2.00464 12.8056 2.00298 11.3389L1.99664 4.67225C1.99531 3.20558 3.19398 2.00458 4.66064 2.00292L11.3273 1.99658C12.794 1.99525 13.995 3.19392 13.9966 4.66058L14.003 11.3272C14.0046 12.7942 12.8056 13.9953 11.339 13.9966Z" fill="url(#paint0_radial_34_64)"/>
<path d="M11.339 13.9966L4.67231 14.0029C3.20564 14.0042 2.00464 12.8056 2.00298 11.3389L1.99664 4.67225C1.99531 3.20558 3.19398 2.00458 4.66064 2.00292L11.3273 1.99658C12.794 1.99525 13.995 3.19392 13.9966 4.66058L14.003 11.3272C14.0046 12.7942 12.8056 13.9953 11.339 13.9966Z" fill="url(#paint1_radial_34_64)"/>
<path d="M8.00002 10.3334C6.71369 10.3334 5.66669 9.28675 5.66669 8.00008C5.66669 6.71341 6.71369 5.66675 8.00002 5.66675C9.28635 5.66675 10.3334 6.71341 10.3334 8.00008C10.3334 9.28675 9.28635 10.3334 8.00002 10.3334ZM8.00002 6.33341C7.08102 6.33341 6.33335 7.08108 6.33335 8.00008C6.33335 8.91908 7.08102 9.66675 8.00002 9.66675C8.91902 9.66675 9.66669 8.91908 9.66669 8.00008C9.66669 7.08108 8.91902 6.33341 8.00002 6.33341Z" fill="white"/>
<path d="M10.5 6C10.7761 6 11 5.77614 11 5.5C11 5.22386 10.7761 5 10.5 5C10.2239 5 10 5.22386 10 5.5C10 5.77614 10.2239 6 10.5 6Z" fill="white"/>
<path d="M10 12.3334H6.00002C4.71369 12.3334 3.66669 11.2867 3.66669 10.0001V6.00008C3.66669 4.71341 4.71369 3.66675 6.00002 3.66675H10C11.2864 3.66675 12.3334 4.71341 12.3334 6.00008V10.0001C12.3334 11.2867 11.2864 12.3334 10 12.3334ZM6.00002 4.33341C5.08102 4.33341 4.33335 5.08108 4.33335 6.00008V10.0001C4.33335 10.9191 5.08102 11.6667 6.00002 11.6667H10C10.919 11.6667 11.6667 10.9191 11.6667 10.0001V6.00008C11.6667 5.08108 10.919 4.33341 10 4.33341H6.00002Z" fill="white"/>
<defs>
<radialGradient id="paint0_radial_34_64" cx="0" cy="0" r="1" gradientUnits="userSpaceOnUse" gradientTransform="translate(6.45998 14.0116) scale(14.9663)">
<stop stop-color="#FFDD55"/>
<stop offset="0.328" stop-color="#FF543F"/>
<stop offset="0.348" stop-color="#FC5245"/>
<stop offset="0.504" stop-color="#E64771"/>
<stop offset="0.643" stop-color="#D53E91"/>
<stop offset="0.761" stop-color="#CC39A4"/>
<stop offset="0.841" stop-color="#C837AB"/>
</radialGradient>
<radialGradient id="paint1_radial_34_64" cx="0" cy="0" r="1" gradientUnits="userSpaceOnUse" gradientTransform="translate(3.92864 1.84668) scale(9.93767 6.62147)">
<stop stop-color="#4168C9"/>
<stop offset="0.999" stop-color="#4168C9" stop-opacity="0"/>
</radialGradient>
</defs>
</svg>
