<svg width="13" height="16" viewBox="0 0 13 16" fill="none" xmlns="http://www.w3.org/2000/svg">
<path d="M5.21623 9.64111C5.21623 9.88642 5.01646 10.0862 4.77115 10.0862C4.52585 10.0862 4.32608 9.88642 4.32608 9.64111C4.32608 9.39581 4.52585 9.19603 4.77115 9.19603C5.01646 9.19603 5.21623 9.39581 5.21623 9.64111ZM8.65416 10.6951H11.1586V13.2002H8.65416V10.6951ZM8.93106 12.5584C8.93106 12.7596 9.09411 12.9219 9.29461 12.9219H10.5175C10.7187 12.9219 10.881 12.7589 10.881 12.5584V11.337C10.881 11.1357 10.718 10.9734 10.5175 10.9734H9.29461C9.09338 10.9734 8.93106 11.1365 8.93106 11.337V12.5584ZM6.08501 11.9473C6.08501 12.7493 6.33326 13.4941 6.75703 14.1088L0 14.1095V6.68124H9.54197V8.14352C7.60519 8.32714 6.08486 9.96349 6.08486 11.9479L6.08501 11.9473ZM5.94327 9.64031C5.94327 8.99399 5.41739 8.46739 4.77035 8.46739C4.12403 8.46739 3.59743 8.99326 3.59743 9.64031C3.59743 10.1603 3.93748 10.6017 4.40606 10.7552V11.9582C4.40606 12.1595 4.56911 12.3218 4.76961 12.3218C4.97012 12.3218 5.13317 12.1587 5.13317 11.9582V10.7552C5.60175 10.6017 5.9418 10.1603 5.9418 9.64031H5.94327ZM10.1532 11.7004H9.65819V12.1947H10.1532V11.7004ZM2.63168 3.01564C2.63168 1.83612 3.59162 0.876169 4.77115 0.876169C5.95067 0.876169 6.91213 1.8361 6.91213 3.01564V5.95419H7.78758V3.01564C7.78758 1.35284 6.43473 0 4.77194 0C3.10916 0 1.75706 1.35285 1.75706 3.01564V5.95419H2.63251V3.01564H2.63168ZM13 11.9481C13 13.6534 11.6119 15.0408 9.90652 15.0408C8.2004 15.0408 6.81379 13.6534 6.81379 11.9481C6.81379 10.2427 8.20117 8.85457 9.90652 8.85457C11.6119 8.85457 13 10.2427 13 11.9481ZM12.1789 10.5967H11.8866V10.3315C11.8866 10.1303 11.7235 9.96797 11.523 9.96797H11.2579V9.67565C11.2579 9.47442 11.0948 9.3121 10.8943 9.3121C10.6938 9.3121 10.5308 9.47515 10.5308 9.67565V9.96797H10.2708V9.67565C10.2708 9.47442 10.1077 9.3121 9.90722 9.3121C9.70671 9.3121 9.54366 9.47515 9.54366 9.67565V9.96797H9.2844V9.67565C9.2844 9.47442 9.12135 9.3121 8.92085 9.3121C8.72034 9.3121 8.5573 9.47515 8.5573 9.67565V9.96797H8.29215C8.09091 9.96797 7.9286 10.131 7.9286 10.3315V10.5967H7.63555C7.43431 10.5967 7.272 10.7597 7.272 10.9602C7.272 11.1607 7.43504 11.3238 7.63555 11.3238H7.9286V11.5838H7.63555C7.43431 11.5838 7.272 11.7468 7.272 11.9473C7.272 12.1478 7.43504 12.3109 7.63555 12.3109H7.9286V12.5709H7.63555C7.43431 12.5709 7.272 12.7339 7.272 12.9344C7.272 13.1349 7.43504 13.298 7.63555 13.298H7.9286V13.5631C7.9286 13.7644 8.09165 13.9267 8.29215 13.9267H8.5573V14.219C8.5573 14.4202 8.72034 14.5825 8.92085 14.5825C9.12135 14.5825 9.2844 14.4195 9.2844 14.219V13.9267H9.54366V14.219C9.54366 14.4202 9.70671 14.5825 9.90722 14.5825C10.1077 14.5825 10.2708 14.4195 10.2708 14.219V13.9267H10.5308V14.219C10.5308 14.4202 10.6938 14.5825 10.8943 14.5825C11.0948 14.5825 11.2579 14.4195 11.2579 14.219V13.9267H11.523C11.7243 13.9267 11.8866 13.7636 11.8866 13.5631V13.298H12.1789C12.3801 13.298 12.5424 13.1349 12.5424 12.9344C12.5424 12.7339 12.3794 12.5709 12.1789 12.5709H11.8866V12.3109H12.1789C12.3801 12.3109 12.5424 12.1478 12.5424 11.9473C12.5424 11.7468 12.3794 11.5838 12.1789 11.5838H11.8866V11.3238H12.1789C12.3801 11.3238 12.5424 11.1607 12.5424 10.9602C12.5424 10.7597 12.3794 10.5967 12.1789 10.5967Z" fill="#3AD953"/>
</svg>
