<svg width="59" height="46" viewBox="0 0 59 46" fill="none" xmlns="http://www.w3.org/2000/svg">
<path d="M2.46307 45.2178C2.48122 45.2177 2.65865 45.2167 2.46307 45.2178V45.2178Z" fill="#1DB3BF"/>
<path d="M3.40543 18.2063C2.86844 18.0982 2.1192 18.1298 1.83936 18.7089C1.71495 18.9999 1.68131 19.323 1.74301 19.6343C1.82087 20.0161 1.83973 20.4079 1.7989 20.7955C1.51646 20.7487 1.22676 20.797 0.973698 20.9332C0.720636 21.0695 0.518004 21.2861 0.396503 21.5505C0.00776677 22.7386 0.0473488 24.0293 0.508124 25.1905C0.635152 25.8209 0.692114 26.4638 0.677934 27.1072C0.655829 27.3565 0.683323 27.6079 0.758768 27.8462C0.834213 28.0845 0.956051 28.3047 1.11697 28.4938C1.54592 28.8345 2.05787 29.0493 2.5976 29.115C2.81782 29.1998 3.05557 29.226 3.28843 29.1911C3.52129 29.1562 3.74158 29.0613 3.92854 28.9155C3.97635 28.8681 4.0081 28.8064 4.01915 28.7394C4.0302 28.6723 4.01999 28.6034 3.98999 28.5427C3.95999 28.482 3.91178 28.4326 3.85237 28.4018C3.79297 28.371 3.72548 28.3603 3.65973 28.3713C2.8867 28.4897 1.8798 28.5755 1.44637 27.6929C1.30527 27.3147 1.25282 26.908 1.29322 26.5054C1.29163 26.0821 1.24355 25.6603 1.14988 25.2479C0.782019 24.3421 0.584059 23.3739 0.566285 22.3936C0.786967 21.0727 2.07466 21.3248 3.01963 21.3977L3.06148 21.2585C2.7581 21.0621 2.42401 20.9202 2.07369 20.8389C2.31435 20.4734 2.42653 20.0355 2.39193 19.5966C2.36878 19.2721 2.46183 18.9502 2.65379 18.6905C2.89551 18.5338 3.15349 18.4049 3.42302 18.3062L3.40543 18.2063Z" fill="#1DB3BF"/>
<path d="M4.49033 26.0099C4.57259 25.7534 4.76014 25.5801 4.80102 25.3094C4.82011 25.0233 4.79216 24.736 4.71832 24.4593C4.59642 23.8543 4.05308 23.8665 3.69173 23.4861C3.19228 22.9613 3.50637 22.2601 3.3995 21.6259L3.26889 21.6011C2.95236 22.1926 2.5649 22.5991 2.77144 23.3249C2.85743 23.6246 3.01779 23.8967 3.23701 24.1147C3.44794 24.2844 3.68872 24.4113 3.94638 24.4887C4.0947 24.5573 4.45852 24.7347 4.37223 24.9991L4.07831 25.1809C3.86591 25.3923 3.72318 25.6658 3.66985 25.9637C3.59009 26.6806 3.74792 27.4043 4.11818 28.0191C4.12998 28.0428 4.14843 28.0624 4.17118 28.0753C4.19392 28.0883 4.21993 28.094 4.24589 28.0918C4.27185 28.0897 4.29658 28.0796 4.31693 28.0631C4.33728 28.0465 4.35232 28.0241 4.36015 27.9987C4.37019 27.3339 4.41364 26.6701 4.49033 26.0099Z" fill="#1DB3BF"/>
<path d="M29.4997 8.68348C28.7016 8.55274 27.8859 8.58671 27.101 8.78336C26.316 8.98002 25.5777 9.33537 24.9298 9.82837C24.238 10.3481 23.6545 11.0032 23.2133 11.7554C22.9828 12.1903 22.6955 12.5911 22.3593 12.9471C21.9527 13.3031 21.5019 13.603 21.0185 13.839C19.2079 14.9121 17.33 15.8625 15.397 16.6839C14.3437 17.047 13.2328 17.2046 12.1222 17.1486C11.2209 17.0885 10.3164 17.1957 9.45264 17.4649C7.75202 18.3957 6.11698 19.4462 4.55937 20.6087C4.41799 20.4105 4.31709 20.1854 4.26265 19.9466C4.19616 19.7074 4.16125 19.2758 3.80379 19.4168C3.37365 19.5836 3.40357 20.2505 3.62775 20.5684C3.69239 20.6608 3.77619 20.7374 3.87319 20.7929C3.97018 20.8483 4.07797 20.8813 4.18887 20.8893C3.97564 21.0485 3.77091 21.2193 3.57557 21.4008C3.4711 21.5031 3.55188 21.7019 3.70333 21.6423C5.53851 20.6877 7.3176 19.6249 9.03156 18.4591C10.8341 17.4831 12.8247 18.0519 14.7293 17.5587C16.6734 16.9049 18.5354 16.02 20.2769 14.9223C20.8035 14.6385 21.3581 14.3753 21.8747 14.0565C21.9155 15.0175 22.1838 15.9542 22.6568 16.7863C22.9407 17.3325 23.2953 17.8373 23.7111 18.287C23.9346 18.5454 24.1809 18.7822 24.4469 18.9945L23.6598 19.2726C21.6588 19.8874 19.5995 20.2837 17.5165 20.455C16.5331 20.563 15.5454 20.6069 14.5591 20.6755C13.503 20.7461 12.4535 20.8966 11.4192 21.1255C10.4683 21.3356 9.53346 21.6153 8.6219 21.9623C7.60923 22.348 5.6732 23.1074 4.69575 23.5823L4.73177 23.7305L5.2301 23.5843C5.12757 23.883 5.11177 24.2057 5.1846 24.5134L5.3659 25.071C5.44578 25.3505 5.39825 25.4894 5.08475 25.579L5.1049 25.6916C5.46208 25.6609 5.82317 25.7588 5.81724 25.2377C5.81437 24.9745 5.72756 24.7131 5.71106 24.4476C5.67944 24.1251 5.60982 23.8077 5.50371 23.5022C7.24256 22.9791 11.3211 21.7414 11.8915 21.6553C13.916 21.3706 15.9553 21.2081 17.9986 21.1686C20.0325 21.1176 22.0482 20.765 23.9826 20.1221C25.0148 19.7879 26.0162 19.3616 26.975 18.848L28.4105 18.0498C28.8394 17.7927 29.2544 17.5121 29.6536 17.2092L29.7185 17.1031L29.7008 16.9793L29.609 16.8963L29.4864 16.8935C28.0679 17.4881 26.6546 18.1333 25.2162 18.6988C24.978 18.3848 24.6536 18.1232 24.408 17.8237C24.0419 17.3727 23.7302 16.8784 23.4797 16.3514C23.2358 15.8518 23.0509 15.3244 22.9289 14.7802C22.871 14.3427 22.7784 13.9106 22.652 13.4883L22.7066 13.4417C23.289 12.8297 23.8162 12.1654 24.2819 11.4569C24.9167 10.6606 25.71 10.0108 26.6093 9.5507C27.5086 9.09056 28.4934 8.83049 29.4987 8.78767L29.4997 8.68348Z" fill="#1DB3BF"/>
<path d="M22.7282 11.9061C22.2961 12.2279 21.8242 12.49 21.3248 12.6858C19.4391 13.6082 17.4957 14.4025 15.5073 15.0635C14.4293 15.3396 13.3099 15.4062 12.2076 15.2598C11.314 15.1262 10.4042 15.1592 9.52223 15.3571C7.37733 16.321 5.31844 17.4729 3.3687 18.7999C3.25579 18.8932 3.32276 19.0986 3.47814 19.0509C5.37886 18.2491 7.23201 17.3345 9.02809 16.312C10.8979 15.4858 12.8393 16.2153 14.7759 15.879C16.7625 15.3859 18.685 14.6555 20.5038 13.7029C21.0499 13.463 21.6225 13.246 22.1614 12.9695C22.136 13.198 22.1348 13.4288 22.1581 13.6576C22.4382 13.5394 22.6785 13.3404 22.8495 13.085L23.0345 12.6929L22.9787 12.4684L23.0368 12.4255L23.1163 12.3595L23.1572 12.012C23.1688 11.8313 24.063 10.7971 24.0567 10.6145C23.926 10.7731 22.8903 11.7741 22.7282 11.9061Z" fill="#1DB3BF"/>
<path d="M52.0204 10.8775C51.4114 10.8379 50.9445 10.0171 50.591 9.58269C50.2475 9.08299 49.9378 8.56 49.664 8.01737L49.5581 8.02863C49.545 8.3895 49.612 8.74876 49.7541 9.07953C49.5577 9.03914 49.357 9.0255 49.1571 9.03896C48.6745 9.0037 48.1933 9.12493 47.7823 9.38532L47.8017 9.4417C48.4096 9.41715 49.5083 9.15178 49.9928 9.63566L50.0245 9.66164C50.1274 9.85666 50.2465 10.0423 50.3804 10.2166C50.8374 10.775 51.3124 11.2955 52.0389 11.0575C52.0567 11.0492 52.0716 11.0354 52.0813 11.0181C52.0911 11.0007 52.0952 10.9806 52.0932 10.9607C52.0912 10.9408 52.083 10.922 52.0699 10.9071C52.0569 10.8922 52.0395 10.8818 52.0204 10.8775Z" fill="#1DB3BF"/>
<path d="M57.5467 3.34761C57.373 2.51097 56.9547 1.74771 56.3471 1.15864C55.7394 0.569573 54.971 0.182407 54.1433 0.0482826C53.2523 -0.0344867 52.3548 0.0991827 51.5242 0.438355C50.7057 0.710602 49.9423 1.1318 49.2708 1.68157C48.6207 2.26942 48.1774 3.26726 47.3363 3.5645C46.8299 3.74335 46.2542 3.79828 45.7331 3.92768C45.2749 4.04278 44.824 4.18599 44.3828 4.35655L44.4225 4.4663C44.9225 4.30582 45.4351 4.18956 45.9547 4.1188C46.3354 4.07194 46.7199 4.10747 47.0998 4.06732C47.687 3.97668 48.2178 3.65987 48.5831 3.18205C49.0844 2.5252 49.6928 1.96135 50.3816 1.51522C51.1222 1.11324 51.9277 0.850828 52.7596 0.740586C53.5628 0.563913 54.4013 0.675891 55.133 1.05757C55.8648 1.43924 56.4448 2.06717 56.7751 2.83505C57.2237 3.63039 57.4594 4.53207 57.4587 5.44964C57.458 6.36721 57.2208 7.2684 56.771 8.0628C56.6847 8.17002 56.8339 8.3516 56.9352 8.25425C57.2282 7.98684 57.4658 7.66226 57.6339 7.29966C57.802 6.93705 57.8972 6.54376 57.914 6.14296C57.9586 5.19621 57.8341 4.24903 57.5467 3.34761Z" fill="#1DB3BF"/>
<path d="M52.3592 5.50209C51.3336 5.68501 50.289 5.73146 49.2516 5.64029C48.285 5.30536 47.2889 5.06698 46.2773 4.92851C46.1779 4.92908 46.1826 5.06797 46.2504 5.1081C46.65 5.32602 47.0753 5.49079 47.5159 5.59838C48.0091 5.74465 48.4421 5.97115 48.919 6.15293C49.3147 6.29574 49.7272 6.38446 50.1457 6.41678L50.1129 6.68298C50.1214 6.80612 50.1708 6.92263 50.253 7.01325C50.2952 7.05793 50.4189 7.13177 50.456 7.03246C50.5007 6.91344 50.4054 6.79336 50.4207 6.66663L50.5279 6.4426C51.6151 6.35157 52.7085 6.37292 53.7914 6.50632C54.6876 6.76812 55.9175 7.04121 56.322 8.02471L56.4523 7.99178C56.112 6.13138 53.9637 5.37436 52.3592 5.50209Z" fill="#1DB3BF"/>
<path d="M54.8856 8.91775C54.7144 8.81385 54.5072 8.84398 54.3239 8.77025L54.0854 8.65447L53.7756 8.55484L53.7594 8.57276C53.8211 8.69465 53.8216 8.81133 53.9147 8.91683L54.2 9.11778C54.3118 9.16046 54.4314 9.17792 54.5505 9.16896C54.6696 9.16001 54.7854 9.12485 54.8899 9.0659L54.8856 8.91775Z" fill="#1DB3BF"/>
<path d="M55.3802 8.43066C55.1582 8.26749 54.8934 8.17609 54.6199 8.16831C54.4853 8.15588 54.3505 8.1805 54.2159 8.18011C54.0883 8.16782 53.9596 8.17339 53.8335 8.19666C53.9945 8.29645 54.1857 8.33749 54.3546 8.42543L54.8467 8.61616C54.9815 8.65729 55.3416 8.86197 55.4277 8.63922L55.3802 8.43066Z" fill="#1DB3BF"/>
<path d="M53.4065 10.1237C53.2764 10.0432 53.1291 9.9964 52.9773 9.98724L52.7703 9.93935L52.5686 9.85993L52.5173 9.92668L52.6508 10.1023L52.8333 10.277C52.8969 10.3388 52.9726 10.3862 53.0553 10.4163C53.138 10.4464 53.226 10.4584 53.3135 10.4516L53.4558 10.3429L53.4692 10.2954L53.4065 10.1237Z" fill="#1DB3BF"/>
<path d="M55.5367 5.10036C55.2689 4.62662 54.8686 4.24521 54.3871 4.00496C53.9056 3.7647 53.3648 3.67653 52.834 3.75173C51.2065 3.79903 49.6562 4.55456 48.0068 4.49225L47.9909 4.60231C48.6056 4.76305 49.2359 4.85317 49.8702 4.87099C50.5438 4.83339 51.2117 4.72419 51.8631 4.54516C53.0389 4.27819 54.5603 4.05531 55.4365 5.15672L55.5367 5.10036Z" fill="#1DB3BF"/>
<path d="M54.8459 9.86839C54.791 9.89952 54.73 9.91792 54.6673 9.92228C54.6046 9.92664 54.5417 9.91685 54.4831 9.89362L54.2043 9.75029C54.1401 9.71713 54.0683 9.70216 53.9965 9.70693C53.9247 9.7117 53.8555 9.73603 53.7961 9.7774L53.789 9.82212C53.8444 9.92667 53.9256 10.0146 54.0246 10.0772C54.1236 10.1397 54.237 10.1747 54.3533 10.1787C54.4559 10.1776 54.5569 10.1527 54.6486 10.1058C54.7403 10.0589 54.8203 9.99123 54.8825 9.908L54.8459 9.86839Z" fill="#1DB3BF"/>
<path d="M45.1701 9.22165L45.5427 8.99772C46.209 8.22369 46.6439 7.27107 46.796 6.25258L46.7052 6.24037C46.4103 7.07863 45.9247 7.83353 45.2884 8.44307C45.2632 8.70464 45.2237 8.96457 45.1701 9.22165Z" fill="#1DB3BF"/>
<path d="M43.9814 10.9293L43.817 11.3319L43.7822 11.4379C44.1741 11.5135 44.5738 11.5382 44.9717 11.5112C45.895 11.4319 46.5163 10.5038 47.1619 9.92967L47.0972 9.83141C46.5662 10.138 46.0269 10.3828 45.4798 10.651C44.9962 10.8175 44.4915 10.9112 43.9814 10.9293Z" fill="#1DB3BF"/>
<path d="M45.4545 5.89194L45.3388 5.93312C45.9333 7.90851 44.1893 9.635 43.1477 11.0688C42.5511 11.935 42.0193 12.846 41.5569 13.7938C41.1141 14.6458 40.6345 15.4841 40.2632 16.3741L40.1028 16.8078C40.2523 17.0083 40.9879 16.2116 41.1834 15.8398C41.3903 15.4464 44.4532 10.7971 44.5595 10.6553C44.8507 10.2686 45.1038 9.85347 45.315 9.41601C45.7994 8.30235 45.8492 7.04205 45.4545 5.89194Z" fill="#1DB3BF"/>
<path d="M39.0627 18.3907C38.7109 19.3445 38.2163 21.1372 37.8198 22.0711C36.9774 24.0529 36.0804 26.0069 35.393 28.0545C35.3518 28.1772 35.5302 28.2308 35.5886 28.1296C36.7003 26.1729 37.4937 24.3194 38.4593 22.2818C38.9687 21.0172 39.3975 19.7202 39.7428 18.399C39.9142 17.7887 39.3065 17.7299 39.0627 18.3907Z" fill="#1DB3BF"/>
<path d="M47.5359 10.0129C46.5599 10.9014 45.7672 11.9796 45.2042 13.1844C44.8579 13.7302 42.9033 14.0109 42.2912 14.1522L41.9723 14.2823L41.8207 14.9976C42.9791 15.0042 44.1296 14.8047 45.2207 14.4081C45.7383 13.9282 46.1075 13.3046 46.283 12.6138C46.6151 11.7235 47.0708 10.8867 47.6362 10.1287L47.5359 10.0129Z" fill="#1DB3BF"/>
<path d="M36.5589 17.7766C35.6561 19.4894 34.9559 21.3056 34.4728 23.187C34.2023 24.1722 33.9905 25.1752 33.8132 26.1831C33.7033 26.8033 33.5877 27.1827 33.4991 27.6349C32.3489 27.6574 31.2273 28.0045 30.2587 28.6377L30.2795 28.6959C30.8364 28.5251 31.4078 28.408 31.9862 28.346C32.4624 28.3083 32.9308 28.2744 33.4058 28.2576L33.3845 28.5017C33.3754 28.6226 33.5329 28.63 33.5826 28.5487C33.9948 27.9125 34.2592 27.1885 34.3557 26.4321C34.5442 25.4253 34.7626 24.4283 35.0056 23.4346C35.4934 21.4408 36.051 19.7674 36.6835 17.8241L36.5589 17.7766Z" fill="#1DB3BF"/>
<path d="M40.4999 6.79435C40.364 7.46075 38.7975 11.2935 38.5338 12.1236C37.9089 13.8388 37.4088 15.5988 37.0377 17.3891L37.055 17.4508L37.1053 17.4894L37.1681 17.4893L37.2182 17.4506C37.6886 16.7279 38.0496 15.9371 38.2893 15.1047C38.664 14.1691 39.013 13.2225 39.3681 12.2784C40.113 10.5535 40.546 8.70523 40.6462 6.82291C40.648 6.73886 40.5189 6.70325 40.4999 6.79435Z" fill="#1DB3BF"/>
<path d="M45.2058 3.62342C44.0493 3.49333 42.881 3.51949 41.7312 3.70122C40.5749 3.9705 39.4686 4.4279 38.4547 5.05587C37.4146 5.68554 36.4473 6.4301 35.4359 7.10592C34.2868 7.98071 32.904 8.47797 31.4712 8.53165L31.4565 8.58128C31.9407 8.78656 32.4647 8.87514 32.9879 8.84014C33.5549 8.75004 34.1041 8.56757 34.6143 8.29971L34.8016 8.20232C34.5847 9.27317 34.7163 10.3871 35.1765 11.3748C35.8013 12.6431 36.5895 13.8206 37.5202 14.8758L36.9619 15.0179C36.3011 15.1537 35.6398 15.2855 34.9822 15.4368C34.3985 15.5711 33.8228 15.7254 33.2495 15.8866L33.1957 15.8799C32.5738 15.9319 31.9171 15.2436 31.5221 14.806C31.0718 14.3215 30.6994 13.7675 30.4186 13.1644C30.1588 12.5299 30.0756 11.8346 30.1781 11.1551C30.2807 10.4756 30.565 9.83811 30.9999 9.31295L30.9238 9.22541C30.5673 9.40457 30.2551 9.66367 30.0106 9.98332C29.7661 10.303 29.5955 10.6749 29.5118 11.0713C29.348 11.9257 29.4573 12.8113 29.8235 13.5977C30.1915 14.3768 30.7179 15.067 31.3677 15.6223C31.617 15.8652 31.9119 16.054 32.2347 16.1774L30.7202 16.6063L30.7365 16.6847C32.2013 16.482 33.6592 16.3537 35.1191 16.0942C35.8295 15.9681 36.5361 15.8184 37.2434 15.6752L37.8029 15.5875C37.9097 15.3102 38.0155 15.0339 38.0985 14.7479L37.9823 14.7569C37.1746 13.7593 36.5289 12.6359 36.0701 11.4296C35.8678 10.7949 35.7307 10.1404 35.6611 9.47678C35.6139 8.87903 35.7427 8.27032 35.715 7.67779C36.4247 7.23244 37.1041 6.73194 37.7931 6.25361C38.3396 5.87425 38.898 5.48326 39.4773 5.13266C38.9688 5.63815 38.6011 6.27252 38.4119 6.97078C38.2261 7.64237 38.2546 8.35693 38.4935 9.01093C38.6553 9.46512 38.949 9.8582 39.3354 10.1378L39.4825 9.60444L39.5182 9.41902C39.3653 9.22139 39.2402 9.00289 39.1467 8.76988C38.9319 8.14884 38.9237 7.47294 39.1234 6.84678C39.4222 5.9574 39.9381 5.16038 40.6224 4.53086L41.0977 4.33944C42.4241 3.9147 43.8119 3.72392 45.2012 3.77533L45.2058 3.62342Z" fill="#1DB3BF"/>
<path d="M47.774 13.3547C47.0296 16.0131 46.214 18.2806 45.3654 20.9035C44.9867 22.0772 44.5164 23.218 43.959 24.3149L43.0955 26.0595C42.7589 26.6247 42.5093 27.2391 42.3551 27.8814L42.3608 27.9711L42.4182 28.0392L42.5042 28.0582L42.5842 28.0206C42.7335 27.8633 42.8669 27.6911 42.9824 27.5065C43.2423 27.4605 43.4984 27.3938 43.7481 27.3071C44.3208 27.1846 44.9023 27.1544 45.4815 27.0599L45.4812 27.0136C44.8154 26.8253 44.1331 26.7036 43.4442 26.6502L43.6388 26.2472C43.9594 25.6068 44.2849 24.9701 44.5957 24.3235C45.1096 23.31 45.5424 22.2558 45.89 21.1712C46.3217 19.8189 46.6072 18.7984 46.966 17.4246C47.399 16.1067 47.6851 14.7433 47.8187 13.36L47.774 13.3547Z" fill="#1DB3BF"/>
<path d="M44.8319 14.0217C44.7301 14.401 44.6282 14.7776 44.5154 15.1424C44.1292 16.3923 43.8504 17.5557 43.473 18.8085C43.084 20.0996 42.8418 20.9511 42.4262 22.2331C41.9756 23.3786 41.5972 24.5523 41.2936 25.7472C41.2757 25.8378 41.3946 25.917 41.4449 25.8225C42.0161 24.7208 42.4897 23.5692 42.8598 22.3814C43.2726 21.1399 43.5633 20.3478 43.942 19.0945C44.3317 17.8048 44.6582 16.6115 44.9765 15.3C45.1587 14.5493 45.3965 13.7622 45.5699 12.9747C45.4481 13.3994 45.1877 13.7688 44.8319 14.0217Z" fill="#1DB3BF"/>
<path d="M48.2702 9.83503L48.106 9.87626C47.8871 10.1637 48.0366 10.6286 48.0485 10.9742C48.0583 11.4656 48.0955 11.956 48.1597 12.443C48.2481 11.8665 49.0074 10.1952 48.2702 9.83503Z" fill="#1DB3BF"/>
<path d="M36.8317 29.7062C35.8186 29.3204 34.7171 29.245 33.6626 29.4891C33.1195 29.6709 32.5644 29.8134 32.0015 29.9154C31.5547 29.9628 31.1203 30.0945 30.7207 30.3038L30.7391 30.3556C31.7017 30.1438 32.6936 30.3157 33.6489 30.0928C34.2376 29.9182 34.8498 29.8399 35.4627 29.8608C35.9184 29.9652 36.3885 29.9871 36.8516 29.9253C36.9683 29.8957 36.9272 29.7297 36.8317 29.7062Z" fill="#1DB3BF"/>
<path d="M44.6617 28.1177C43.9181 28.1124 43.1754 28.1708 42.4414 28.2925C42.0671 28.3588 41.6859 28.3757 41.3073 28.343C40.9509 28.3152 40.599 28.2443 40.2589 28.1318L40.214 28.2082C40.4249 28.4455 40.6835 28.6334 40.9721 28.7592C41.2607 28.8849 41.5726 28.9456 41.8863 28.937C42.283 28.8861 42.6711 28.7801 43.0396 28.6218C43.571 28.493 44.1108 28.4036 44.6549 28.3543C44.7775 28.3361 44.7965 28.131 44.6617 28.1177Z" fill="#1DB3BF"/>
<path d="M32.1777 28.6692C31.7037 28.716 31.2369 28.8197 30.7868 28.9781C30.4036 29.1405 30.0721 29.4221 29.6887 29.5926C29.9627 29.8937 30.3757 29.735 30.7021 29.6382C31.2739 29.5493 31.8176 29.3258 32.2902 28.9855C32.4017 28.8814 32.3601 28.6394 32.1777 28.6692Z" fill="#1DB3BF"/>
</svg>
