<svg width="39" height="38" viewBox="0 0 39 38" fill="none" xmlns="http://www.w3.org/2000/svg">
<path d="M27.8974 0L21.5582 12.9394C20.8134 14.3863 19.7132 15.6418 18.3472 16.5967C17.0048 17.4616 15.4459 17.9696 13.8275 18.0709L0 18.5194L13.4332 18.9679C14.8889 19.0177 15.9858 19.5643 16.6189 20.4404C17.0996 21.4195 17.0962 22.6959 16.5105 24.0993L11.1026 37.0387L17.4418 24.0993C18.1866 22.6525 19.2868 21.3969 20.6528 20.442C21.9952 19.5771 23.5541 19.0692 25.1725 18.9679L39 18.5194L25.5668 18.0709C24.1111 18.021 23.0142 17.4745 22.3811 16.5983C21.9004 15.6193 21.9038 14.3428 22.4895 12.9394L27.8974 0Z" fill="#1DB3BF"/>
</svg>
