<svg width="18" height="18" viewBox="0 0 18 18" fill="none" xmlns="http://www.w3.org/2000/svg">
<path d="M16.2 12.7125C16.05 13.5 15.4125 14.1 14.625 14.2125C13.3875 14.4 11.325 14.625 9 14.625C6.7125 14.625 4.65 14.4 3.375 14.2125C2.5875 14.1 1.95 13.5 1.8 12.7125C1.65 11.85 1.5 10.575 1.5 9C1.5 7.425 1.65 6.15 1.8 5.2875C1.95 4.5 2.5875 3.9 3.375 3.7875C4.6125 3.6 6.675 3.375 9 3.375C11.325 3.375 13.35 3.6 14.625 3.7875C15.4125 3.9 16.05 4.5 16.2 5.2875C16.35 6.15 16.5375 7.425 16.5375 9C16.5 10.575 16.35 11.85 16.2 12.7125Z" fill="#FF3D00"/>
<path d="M7.5 11.625V6.375L12 9L7.5 11.625Z" fill="white"/>
</svg>
